<?xml version="1.0" encoding="UTF-8"?>
<!DOCTYPE svg PUBLIC "-//W3C//DTD SVG 1.1//EN" "http://www.w3.org/Graphics/SVG/1.1/DTD/svg11.dtd">
<!-- Creator: CorelDRAW 2019 (64 Bit) -->
<svg xmlns="http://www.w3.org/2000/svg" xml:space="preserve" width="204.896mm" height="163.297mm" version="1.1" style="shape-rendering:geometricPrecision; text-rendering:geometricPrecision; image-rendering:optimizeQuality; fill-rule:evenodd; clip-rule:evenodd"
viewBox="0 0 9428.32 7514.14"
 xmlns:xlink="http://www.w3.org/1999/xlink">
 <defs>
  <style type="text/css">
   <![CDATA[
    .fil0 {fill:white}
   ]]>
  </style>
 </defs>
 <g id="Camada_x0020_1">
  <metadata id="CorelCorpID_0Corel-Layer"/>
  <path class="fil0" d="M5477.48 2841.92c0,-370.76 -261.71,-575.43 -721.39,-575.43l-845.53 0 0 1194.48 713 0c550.26,-1.68 853.91,-223.13 853.91,-619.05zm3078.47 -214.73c-159.37,-518.39 -182.86,-1154.21 -164.41,-1645.76 18.45,-511.68 -380.82,-981.42 -917.67,-981.42l-5516.07 -0c-538.52,0 -936.12,471.42 -917.67,981.42 16.78,491.55 -5.03,1127.37 -164.41,1645.76 -161.05,520.07 -431.15,848.88 -875.73,890.83l0 478.12c442.9,41.94 714.68,370.76 875.73,890.83 159.37,518.39 182.86,1154.21 164.41,1645.76 -18.45,511.68 380.82,981.42 917.67,981.42l5514.39 0c538.52,0 936.12,-471.42 917.67,-981.42 -16.78,-491.55 5.03,-1127.37 164.41,-1645.76 161.05,-520.07 431.15,-848.88 874.05,-890.83l0 -478.12c-441.22,-41.94 -713,-370.76 -872.37,-890.83zm-3637.12 3128.79l-1642.4 0 0 -3997.81 1634.01 0c726.42,0 1202.87,392.57 1202.87,996.52 0,424.44 -320.43,803.59 -729.77,869.02l0 21.81c556.98,60.39 931.09,446.25 931.09,978.06 0,706.28 -525.1,1132.4 -1395.79,1132.4zm-167.76 -1823.59l-840.5 0 0 1315.27 877.4 0c573.75,0 877.4,-229.84 877.4,-662.67 0,-431.15 -312.04,-652.6 -914.31,-652.6z"/>
 </g>
</svg>
