<?xml version="1.0" encoding="UTF-8"?>
<!DOCTYPE svg PUBLIC "-//W3C//DTD SVG 1.1//EN" "http://www.w3.org/Graphics/SVG/1.1/DTD/svg11.dtd">
<!-- Creator: CorelDRAW 2019 (64 Bit) -->
<svg xmlns="http://www.w3.org/2000/svg" xml:space="preserve" width="100.542mm" height="132.292mm" version="1.1" style="shape-rendering:geometricPrecision; text-rendering:geometricPrecision; image-rendering:optimizeQuality; fill-rule:evenodd; clip-rule:evenodd"
viewBox="0 0 1838.93 2419.65"
 xmlns:xlink="http://www.w3.org/1999/xlink">
 <defs>
  <style type="text/css">
   <![CDATA[
    .fil0 {fill:white}
   ]]>
  </style>
 </defs>
 <g id="Camada_x0020_1">
  <metadata id="CorelCorpID_0Corel-Layer"/>
  <path class="fil0" d="M774.29 0c-338.75,0 -580.72,338.75 -580.72,677.5 0,750.09 629.11,1355.01 629.11,1355.01 0,0 -435.54,-629.11 -435.54,-1355.01 0,-580.72 387.14,-677.5 387.14,-677.5zm145.18 0c-125.82,0 -338.75,152.87 -338.75,725.9 0,535.13 269.96,1245.51 281.47,1275.51l11.91 31.1 90.74 0 11.91 -31.1c11.47,-30 281.47,-740.39 281.47,-1275.51 0,-573.02 -212.93,-725.9 -338.75,-725.9zm145.18 0c0,0 387.14,96.78 387.14,677.5 0,725.9 -435.54,1355.01 -435.54,1355.01 0,0 629.11,-604.91 629.11,-1355.01 0,-338.75 -241.97,-677.5 -580.72,-677.5zm-677.5 96.78c0,0 -387.14,145.18 -387.14,580.72 0,822.68 750.09,1355.01 750.09,1355.01 0,0 -653.31,-580.72 -653.31,-1355.01 0,-399.24 290.36,-580.72 290.36,-580.72zm1064.65 0c0,0 290.36,181.47 290.36,580.72 0,774.29 -653.31,1355.01 -653.31,1355.01 0,0 750.09,-532.32 750.09,-1355.01 0,-435.54 -387.14,-580.72 -387.14,-580.72zm-725.9 2032.51c-14.91,0 -28.9,6.86 -38.09,18.62 -9.19,11.76 -12.51,27.02 -8.89,41.49l48.39 193.57c5.42,21.49 24.76,36.67 46.97,36.67l290.36 0c22.21,0 41.56,-15.14 46.97,-36.67l48.39 -193.57c3.63,-14.47 0.26,-29.73 -8.89,-41.49 -9.15,-11.76 -23.19,-18.62 -38.09,-18.62l-387.14 0z"/>
 </g>
</svg>
