<?xml version="1.0" encoding="UTF-8"?>
<!DOCTYPE svg PUBLIC "-//W3C//DTD SVG 1.1//EN" "http://www.w3.org/Graphics/SVG/1.1/DTD/svg11.dtd">
<!-- Creator: CorelDRAW 2019 (64 Bit) -->
<svg xmlns="http://www.w3.org/2000/svg" xml:space="preserve" width="210mm" height="245mm" version="1.1" style="shape-rendering:geometricPrecision; text-rendering:geometricPrecision; image-rendering:optimizeQuality; fill-rule:evenodd; clip-rule:evenodd"
viewBox="0 0 5468.8 6380.27"
 xmlns:xlink="http://www.w3.org/1999/xlink">
 <defs>
  <style type="text/css">
   <![CDATA[
    .fil0 {fill:white}
   ]]>
  </style>
 </defs>
 <g id="Camada_x0020_1">
  <metadata id="CorelCorpID_0Corel-Layer"/>
  <path class="fil0" d="M-0 0l497.03 5636.85 2237.37 743.42 2237.37 -743.42 497.03 -5636.85 -5468.8 0zm4459.07 1139.33l-68.36 673.63 -1642.06 702.11 -4.27 1.42 1587.95 0 -182.29 2087.83 -1398.53 408.74 -1407.08 -415.86 -91.15 -1052.46 696.42 0 45.57 545.46 749.11 189.41 779.02 -219.32 52.69 -877.29 -2368.39 -7.12 0 -1.42 -2.85 1.42 -51.27 -659.39 1596.49 -665.09 92.57 -38.45 -1750.3 0 -82.6 -673.63 3449.33 0z"/>
 </g>
</svg>
