<?xml version="1.0" encoding="UTF-8"?>
<!DOCTYPE svg PUBLIC "-//W3C//DTD SVG 1.1//EN" "http://www.w3.org/Graphics/SVG/1.1/DTD/svg11.dtd">
<!-- Creator: CorelDRAW 2019 (64 Bit) -->
<svg xmlns="http://www.w3.org/2000/svg" xml:space="preserve" width="203.438mm" height="202.207mm" version="1.1" style="shape-rendering:geometricPrecision; text-rendering:geometricPrecision; image-rendering:optimizeQuality; fill-rule:evenodd; clip-rule:evenodd"
viewBox="0 0 4695.24 4666.84"
 xmlns:xlink="http://www.w3.org/1999/xlink">
 <defs>
  <style type="text/css">
   <![CDATA[
    .fil0 {fill:white}
   ]]>
  </style>
 </defs>
 <g id="Camada_x0020_1">
  <metadata id="CorelCorpID_0Corel-Layer"/>
  <path class="fil0" d="M4695.24 2347.62c0,-1296.87 -1050.75,-2347.62 -2347.62,-2347.62 -1296.87,0 -2347.62,1050.75 -2347.62,2347.62 0,1171.72 858.49,2142.96 1980.8,2319.22l0 -1640.59 -596.37 0 0 -678.63 596.37 0 0 -517.23c0,-588.32 350.25,-913.3 886.7,-913.3 256.91,0 525.56,45.82 525.56,45.82l0 577.44 -296.1 0c-291.56,0 -382.53,180.99 -382.53,366.63l0 440.65 651.08 0 -104.13 678.63 -546.96 0 0 1640.59c1122.31,-176.26 1980.8,-1147.49 1980.8,-2319.22z"/>
 </g>
</svg>
