<?xml version="1.0" encoding="UTF-8"?>
<!DOCTYPE svg PUBLIC "-//W3C//DTD SVG 1.1//EN" "http://www.w3.org/Graphics/SVG/1.1/DTD/svg11.dtd">
<!-- Creator: CorelDRAW 2019 (64 Bit) -->
<svg xmlns="http://www.w3.org/2000/svg" xml:space="preserve" width="153.846mm" height="155.67mm" version="1.1" style="shape-rendering:geometricPrecision; text-rendering:geometricPrecision; image-rendering:optimizeQuality; fill-rule:evenodd; clip-rule:evenodd"
viewBox="0 0 12152.65 12296.75"
 xmlns:xlink="http://www.w3.org/1999/xlink">
 <defs>
  <style type="text/css">
   <![CDATA[
    .fil0 {fill:white}
   ]]>
  </style>
 </defs>
 <g id="Camada_x0020_1">
  <metadata id="CorelCorpID_0Corel-Layer"/>
  <g id="_3034319230752">
   <path class="fil0" d="M6292.48 4010.85l-1128.81 0c-58.39,0 -554.29,-431.05 -632.47,-496.33 -132.98,-111.06 -117.56,-137.18 -211.54,-364.87 -45.16,-109.4 -136.81,-291.99 -164.71,-411.71 54.22,-74 937.53,-576.41 960.69,-576.41l1224.87 0 728.58 400.22c99.51,50.49 148.17,103.01 256.12,128.16 -88.32,184.07 -239.35,692.62 -373.31,803.53 -114.06,94.44 -200.95,168.39 -315.62,260.78 -57.29,46.16 -290.7,256.62 -343.81,256.62zm122.61 8285.9l-60.03 0c-137.83,-9.34 -272.16,-83.49 -359.56,-231.41 -93.66,-158.52 -63.29,-304.78 -63.29,-537.14l0.84 -3267.16c1.76,-106.92 28.37,-215.32 -72.89,-215.32 -249.64,0 -220.07,-18.89 -216.59,239.73l0.43 3242.74c0,232.4 30.38,378.57 -63.28,537.14 -78.3,132.58 -202.33,216.3 -339.07,231.41l-90 0c-108.01,-11.85 -219.32,-66.62 -319,-173.35 -92.12,-98.63 -126.76,-192.94 -126.21,-378.14l0.9 -6893.81 -389.62 -306.87c-199.87,-174.28 -572.3,-406.11 -691.73,-653.22l-397.28 -947.69c-135.24,-340.3 -368.21,-717.27 -284.63,-983.17 87.22,-277.48 314,-303.33 514.37,-303.33 223.82,0 390.02,298.83 432.31,480.34l868.83 -500.15c97.98,-60.71 177.99,-100.28 332.03,-100.28l1272.9 0c249.73,0 689.52,301.81 913.73,431.23 61.5,35.5 224.88,130.68 287.12,145.19 56.38,-106.54 84.02,-230.85 166.14,-314.2 183.18,-185.92 484.46,-186.78 657.61,-29.22 135.68,123.46 136.93,248.7 136.93,415.47 0,78.71 -379.96,960.83 -440.52,1096.58 -261.69,586.58 -163.79,624.29 -582.09,955.01 -148.02,117.03 -275.41,239 -418.26,350.28 -259.67,202.28 -216.37,114.47 -216.32,552.23l0 6100.34c0,230.39 41.08,551.02 -32.44,736.1 -77.93,196.19 -247.41,308.96 -421.35,320.65z"/>
   <path class="fil0" d="M8526.07 5547.95c0,413.79 -64.02,1007.69 205.68,1283.38 130.14,133.02 285,258.6 514.83,277.74 -2.5,111.96 -70.08,338.67 -101,451.39 -36.82,134.24 -78.39,290.2 -115.15,437.24 -50.15,200.55 -216.15,756.9 -216.15,912.64 672.86,0 628.19,-49.34 626.52,166.04l-2.24 2644.12c-4.03,698.67 526.65,641.98 727.57,415.02 102.52,-115.81 90.13,-187.72 89.25,-391.09l-1.49 -2667.37c-2.97,-187.42 -18.18,-190.73 145.51,-190.73 117.71,0 72.05,272.76 72.05,504.36l-0.99 2378.68c7.51,770.35 841.58,582.54 841.58,95.08l0 -2954.1c662.97,0 517.37,139.83 353.4,-857.76 -23.26,-141.48 -55.53,-328.52 -83.03,-469.36 -25.51,-130.71 -75.43,-348.29 -78.23,-474.15 225.39,0 648.46,-69.54 648.46,-336.25 0,-138.54 -33.43,-267.06 -62.63,-393.7l-167.41 -793.27c-110.89,-499.02 -148.79,-663.13 -778.67,-662.36 -108.7,0.13 -389.77,14.18 -478.88,-1.46 -139.9,-24.54 -144.08,-214.68 -265.66,-214.68l-840.6 0c-271.8,0 -365.44,152.72 -600.42,336.24 -79.88,62.39 -326.55,244.47 -372.8,323.69 -22.61,38.72 -59.5,132.11 -59.5,180.66z"/>
   <path class="fil0" d="M-0 9510.77c0,97.06 78.72,181.16 139.86,220.41 60.68,38.95 224.55,63.44 316.28,67.99 833.6,41.31 576.6,-390.07 576.6,1632.97 0,276.13 -45.63,599.08 77.77,738.81 147.15,166.62 546.68,198.48 546.68,-330.52l-3.54 -524.9c-6.86,-59.71 -23.18,-92.08 -22.8,-172.35 0.85,-180.09 65.79,-170.81 241.68,-168.17 271.61,4.07 545.52,0.81 817.39,0.81 -20.7,77.51 -85.76,157.77 -127.51,232.75 -77.62,139.39 -400.86,653.46 -400.86,727.93 0,173.89 103.64,291.05 256.35,318.24 194.16,34.57 250.83,-59.39 336.44,-205.77 73.5,-125.71 143.76,-232.51 219.43,-356.98l181.03 -323.33c29.95,-49.28 8.6,-21.08 39.48,-56.59 0,234.42 17.24,424.67 23.45,625.01 12.73,411.31 591.11,471.81 684.31,34.72 35.97,-168.74 12.75,-1685.6 12.75,-1932.63 209.61,-55.97 264.18,-252.96 264.18,-504.36 0,-134.07 -142.74,-8.67 -208.51,31.59 -92.69,56.76 -157.35,112.51 -295.85,112.51l-1753.25 0c-147.55,0 -96.06,-347.68 -96.06,-600.43 0,-232.17 0,-464.32 0,-696.49l-1448.72 760.85c-179.98,100.59 -376.59,173.52 -376.59,367.95z"/>
   <path class="fil0" d="M5668.04 3842.73c178.06,0 222.68,2.96 400.99,-79.35 710.95,-328.16 467.12,-1457.75 -328.94,-1457.75 -409.76,0 -748.61,307.76 -778.39,732.31 -30.23,430.94 356.63,804.79 706.34,804.79z"/>
   <path class="fil0" d="M9654.87 3626.58c0,260.17 28.67,425.88 221.69,618.9 320.1,320.09 854.42,281.96 1103.55,-14.18 434.43,-516.4 150.61,-1211.81 -518.72,-1292.79 -403.74,-48.85 -806.53,355.47 -806.53,688.07z"/>
   <path class="fil0" d="M5067.61 672.48c0,343.92 298.66,672.48 624.44,672.48 318.44,0 553.36,-104.19 680.63,-400.14 208.11,-483.91 -149.3,-894.75 -556.13,-944.82l-165.54 0c-142.12,18.03 -281.87,83.91 -397.85,209.57 -86.23,93.41 -185.54,293.13 -185.54,462.91z"/>
   <path class="fil0" d="M8189.83 4467.18c0,639.17 984.69,637.33 984.69,0 0,-631.61 -984.69,-631.64 -984.69,0z"/>
  </g>
 </g>
</svg>
