<?xml version="1.0" encoding="UTF-8"?>
<!DOCTYPE svg PUBLIC "-//W3C//DTD SVG 1.1//EN" "http://www.w3.org/Graphics/SVG/1.1/DTD/svg11.dtd">
<!-- Creator: CorelDRAW 2019 (64 Bit) -->
<svg xmlns="http://www.w3.org/2000/svg" xml:space="preserve" width="135.016mm" height="104.305mm" version="1.1" style="shape-rendering:geometricPrecision; text-rendering:geometricPrecision; image-rendering:optimizeQuality; fill-rule:evenodd; clip-rule:evenodd"
viewBox="0 0 39311.84 30369.8"
 xmlns:xlink="http://www.w3.org/1999/xlink">
 <defs>
  <style type="text/css">
   <![CDATA[
    .fil0 {fill:white}
   ]]>
  </style>
 </defs>
 <g id="Camada_x0020_1">
  <metadata id="CorelCorpID_0Corel-Layer"/>
  <g id="_2999353134112">
   <g>
    <path class="fil0" d="M39281.65 25476.6l-2092.13 -19436.66c-404.95,-3441.91 -3273.48,-6039.95 -6714.84,-6039.95l-21664.33 0c-3441.88,0 -6309.88,2598.03 -6681.35,6006.46l-2092.13 19436.66c-337.43,2632.07 1687.74,4926.68 4285.8,4926.68 1147.28,0 2261.13,-472.44 3070.97,-1282.29l5500.04 -5466.56 13497.69 0 5466.56 5466.56c809.87,809.84 1923.69,1282.29 3071,1282.29 2631.52,0 4656.16,-2294.61 4352.73,-4893.19zm-3576.9 1181.31c-101.5,134.98 -337.43,337.46 -742.35,337.46 -269.97,0 -506.45,-101.5 -708.9,-303.98l-6478.91 -6444.87 -16264.71 0 -6444.87 6445.39c-202.45,201.95 -472.41,303.45 -742.35,303.45 -371.47,0 -641.41,-202.48 -742.38,-337.46 -101.5,-134.98 -303.98,-404.92 -236.48,-843.85l2126.14 -19436.69c202.48,-1720.67 1619.75,-3002.95 3340.41,-3002.95l21630.32 0c1721.22,0 3171.95,1282.29 3340.94,3003.51l2126.14 19504.15c66.97,370.91 -102.02,640.85 -203,775.84z"/>
    <polygon class="fil0" points="12893.67,6748.84 11206.46,6748.84 11206.46,10966.6 6988.18,10966.6 6988.18,12653.81 11206.46,12653.81 11206.46,16872.11 12893.67,16872.11 12893.67,12653.81 17111.42,12653.81 17111.42,10966.6 12893.67,10966.6 "/>
    <circle class="fil0" cx="28078.56" cy="15184.89" r="1687.21"/>
    <circle class="fil0" cx="24704.14" cy="8436.05" r="1687.21"/>
   </g>
  </g>
 </g>
</svg>
