<?xml version="1.0" encoding="UTF-8"?>
<!DOCTYPE svg PUBLIC "-//W3C//DTD SVG 1.1//EN" "http://www.w3.org/Graphics/SVG/1.1/DTD/svg11.dtd">
<!-- Creator: CorelDRAW 2019 (64 Bit) -->
<svg xmlns="http://www.w3.org/2000/svg" xml:space="preserve" width="210mm" height="204.753mm" version="1.1" style="shape-rendering:geometricPrecision; text-rendering:geometricPrecision; image-rendering:optimizeQuality; fill-rule:evenodd; clip-rule:evenodd"
viewBox="0 0 22863.29 22292.07"
 xmlns:xlink="http://www.w3.org/1999/xlink">
 <defs>
  <style type="text/css">
   <![CDATA[
    .fil0 {fill:white}
   ]]>
  </style>
 </defs>
 <g id="Camada_x0020_1">
  <metadata id="CorelCorpID_0Corel-Layer"/>
  <path class="fil0" d="M7647.22 17949.52c0,92.19 -106.02,165.94 -239.69,165.94 -152.12,13.83 -258.14,-59.92 -258.14,-165.94 0,-92.19 106.02,-165.94 239.69,-165.94 138.29,-13.83 258.14,59.92 258.14,165.94zm-1433.56 -207.42c-32.27,92.19 59.92,198.21 198.21,225.87 119.85,46.1 258.14,0 285.79,-92.19 27.65,-92.19 -59.92,-198.21 -198.21,-239.69 -119.85,-32.27 -253.52,13.83 -285.79,106.02zm2037.41 -78.37c-133.67,32.27 -225.87,119.85 -212.04,225.87 13.83,92.19 133.67,152.12 271.96,119.85 133.67,-32.27 225.87,-119.85 212.04,-212.04 -13.83,-87.58 -138.29,-147.5 -271.96,-133.67zm3033.08 -17663.73c-6393.43,0 -11284.15,4853.85 -11284.15,11247.28 0,5111.96 3217.46,9486.42 7813.16,11026 590.03,106.02 797.45,-258.14 797.45,-557.76 0,-285.79 -13.83,-1862.25 -13.83,-2830.26 0,0 -3226.68,691.43 -3904.28,-1373.64 0,0 -525.49,-1341.38 -1281.46,-1687.09 0,0 -1055.59,-723.7 73.75,-709.87 0,0 1147.77,92.19 1779.28,1189.26 1009.49,1779.28 2701.19,1267.62 3360.35,963.39 106.02,-737.53 405.64,-1249.19 737.53,-1553.41 -2576.73,-285.79 -5176.51,-659.16 -5176.51,-5093.53 0,-1267.62 350.32,-1903.74 1087.85,-2715.02 -119.85,-299.62 -511.66,-1534.98 119.85,-3129.88 963.39,-299.62 3180.58,1244.58 3180.58,1244.58 921.9,-258.14 1912.96,-391.81 2894.78,-391.81 981.83,0 1972.89,133.67 2894.79,391.81 0,0 2217.19,-1548.8 3180.58,-1244.58 631.51,1599.51 239.69,2830.26 119.85,3129.88 737.53,815.89 1189.26,1452.01 1189.26,2715.02 0,4448.2 -2715.02,4803.12 -5291.74,5093.53 424.08,364.16 783.62,1055.59 783.62,2138.83 0,1553.41 -13.83,3475.59 -13.83,3853.58 0,299.62 212.04,663.78 797.45,557.76 4609.56,-1530.38 7734.82,-5904.83 7734.82,-11016.79 0,-6393.43 -5185.72,-11247.28 -11579.14,-11247.28zm-6803.68 15898.28c-59.92,46.1 -46.1,152.12 32.27,239.69 73.75,73.75 179.77,106.02 239.69,46.1 59.92,-46.1 46.1,-152.12 -32.27,-239.69 -73.75,-73.75 -179.77,-106.02 -239.69,-46.1zm-497.83 -373.37c-32.27,59.92 13.83,133.67 106.02,179.77 73.75,46.1 165.94,32.27 198.21,-32.27 32.27,-59.92 -13.83,-133.67 -106.02,-179.77 -92.19,-27.65 -165.94,-13.83 -198.21,32.27zm1493.5 1641c-73.75,59.92 -46.1,198.21 59.92,285.79 106.02,106.02 239.69,119.85 299.62,46.1 59.92,-59.92 32.27,-198.21 -59.92,-285.79 -101.42,-106.02 -239.69,-119.85 -299.62,-46.1zm-525.49 -677.6c-73.75,46.1 -73.75,165.94 0,271.96 73.75,106.02 198.21,152.12 258.14,106.02 73.75,-59.92 73.75,-179.77 0,-285.79 -64.53,-106.02 -184.38,-152.12 -258.14,-92.19z"/>
 </g>
</svg>
