<?xml version="1.0" encoding="UTF-8"?>
<!DOCTYPE svg PUBLIC "-//W3C//DTD SVG 1.1//EN" "http://www.w3.org/Graphics/SVG/1.1/DTD/svg11.dtd">
<!-- Creator: CorelDRAW 2019 (64 Bit) -->
<svg xmlns="http://www.w3.org/2000/svg" xml:space="preserve" width="210.117mm" height="210.07mm" version="1.1" style="shape-rendering:geometricPrecision; text-rendering:geometricPrecision; image-rendering:optimizeQuality; fill-rule:evenodd; clip-rule:evenodd"
viewBox="0 0 4040.38 4039.47"
 xmlns:xlink="http://www.w3.org/1999/xlink">
 <defs>
  <style type="text/css">
   <![CDATA[
    .fil0 {fill:white}
   ]]>
  </style>
 </defs>
 <g id="Camada_x0020_1">
  <metadata id="CorelCorpID_0Corel-Layer"/>
  <path class="fil0" d="M2020.64 984.07c-573.27,0 -1035.67,462.4 -1035.67,1035.67 0,573.27 462.4,1035.67 1035.67,1035.67 573.27,0 1035.67,-462.4 1035.67,-1035.67 0,-573.27 -462.4,-1035.67 -1035.67,-1035.67zm0 1708.99c-370.46,0 -673.32,-301.96 -673.32,-673.32 0,-371.36 301.96,-673.32 673.32,-673.32 371.36,0 673.32,301.96 673.32,673.32 0,371.36 -302.86,673.32 -673.32,673.32zm1319.6 -1751.36c0,134.3 -108.16,241.57 -241.57,241.57 -134.3,0 -241.57,-108.16 -241.57,-241.57 0,-133.4 108.16,-241.57 241.57,-241.57 133.4,0 241.57,108.16 241.57,241.57zm685.94 245.17c-15.32,-323.59 -89.23,-610.23 -326.3,-846.38 -236.16,-236.16 -522.79,-310.07 -846.38,-326.3 -333.51,-18.93 -1333.12,-18.93 -1666.63,0 -322.69,15.32 -609.32,89.23 -846.38,325.39 -237.06,236.16 -310.07,522.79 -326.3,846.38 -18.93,333.51 -18.93,1333.12 0,1666.63 15.32,323.59 89.23,610.23 326.3,846.38 237.06,236.16 522.79,310.07 846.38,326.3 333.51,18.93 1333.12,18.93 1666.63,0 323.59,-15.32 610.23,-89.23 846.38,-326.3 236.16,-236.16 310.07,-522.79 326.3,-846.38 18.93,-333.51 18.93,-1332.22 0,-1665.72zm-430.85 2023.57c-70.31,176.67 -206.41,312.77 -383.98,383.98 -265.9,105.46 -896.86,81.12 -1190.71,81.12 -293.84,0 -925.7,23.44 -1190.7,-81.12 -176.67,-70.31 -312.77,-206.41 -383.98,-383.98 -105.46,-265.9 -81.12,-896.86 -81.12,-1190.71 0,-293.84 -23.44,-925.7 81.12,-1190.7 70.31,-176.67 206.41,-312.77 383.98,-383.98 265.9,-105.46 896.86,-81.12 1190.7,-81.12 293.85,0 925.7,-23.44 1190.71,81.12 176.67,70.31 312.77,206.41 383.98,383.98 105.46,265.9 81.12,896.86 81.12,1190.7 0,293.85 24.34,925.7 -81.12,1190.71z"/>
 </g>
</svg>
