<?xml version="1.0" encoding="UTF-8"?>
<!DOCTYPE svg PUBLIC "-//W3C//DTD SVG 1.1//EN" "http://www.w3.org/Graphics/SVG/1.1/DTD/svg11.dtd">
<!-- Creator: CorelDRAW 2019 (64 Bit) -->
<svg xmlns="http://www.w3.org/2000/svg" xml:space="preserve" width="210mm" height="210mm" version="1.1" style="shape-rendering:geometricPrecision; text-rendering:geometricPrecision; image-rendering:optimizeQuality; fill-rule:evenodd; clip-rule:evenodd"
viewBox="0 0 5368.93 5368.93"
 xmlns:xlink="http://www.w3.org/1999/xlink">
 <defs>
  <style type="text/css">
   <![CDATA[
    .fil0 {fill:white}
   ]]>
  </style>
 </defs>
 <g id="Camada_x0020_1">
  <metadata id="CorelCorpID_0Corel-Layer"/>
  <path class="fil0" d="M4793.69 0l-4218.45 0c-317.58,0 -575.24,257.66 -575.24,575.24l0 4218.45c0,317.58 257.66,575.24 575.24,575.24l4218.45 0c317.58,0 575.24,-257.66 575.24,-575.24l0 -4218.45c0,-317.58 -257.66,-575.24 -575.24,-575.24zm-1871.93 4187.29c0,522.51 -306.8,761 -753.81,761 -403.87,0 -637.56,-208.53 -757.4,-461.39l411.06 -248.07c79.1,140.22 151,258.86 324.77,258.86 165.38,0 270.84,-64.72 270.84,-317.58l0 -1714.94 504.54 0 0 1722.13zm1193.63 761c-468.58,0 -771.78,-222.91 -919.19,-515.32l411.06 -237.29c107.86,176.17 249.27,306.8 497.34,306.8 208.53,0 342.75,-104.26 342.75,-249.27 0,-172.57 -136.62,-233.69 -367.91,-335.56l-125.83 -53.93c-364.32,-154.6 -605.2,-349.94 -605.2,-761 0,-378.7 288.82,-666.32 738.23,-666.32 321.18,0 551.27,111.45 716.66,403.87l-393.08 251.67c-86.29,-154.6 -179.76,-215.72 -324.77,-215.72 -147.41,0 -240.88,93.48 -240.88,215.72 0,151 93.48,212.12 310.39,306.8l125.83 53.93c429.04,183.36 669.92,371.51 669.92,793.36 0,453 -357.13,702.28 -835.3,702.28l0 -0z"/>
 </g>
</svg>
