<?xml version="1.0" encoding="UTF-8"?>
<!DOCTYPE svg PUBLIC "-//W3C//DTD SVG 1.1//EN" "http://www.w3.org/Graphics/SVG/1.1/DTD/svg11.dtd">
<!-- Creator: CorelDRAW 2019 (64 Bit) -->
<svg xmlns="http://www.w3.org/2000/svg" xml:space="preserve" width="210mm" height="210mm" version="1.1" style="shape-rendering:geometricPrecision; text-rendering:geometricPrecision; image-rendering:optimizeQuality; fill-rule:evenodd; clip-rule:evenodd"
viewBox="0 0 11828.61 11828.61"
 xmlns:xlink="http://www.w3.org/1999/xlink">
 <defs>
  <style type="text/css">
   <![CDATA[
    .fil0 {fill:white}
   ]]>
  </style>
 </defs>
 <g id="Camada_x0020_1">
  <metadata id="CorelCorpID_0Corel-Layer"/>
  <path class="fil0" d="M10983.71 0l-10141.45 0c-464.7,0 -842.26,382.85 -842.26,852.82l0 10122.97c0,469.97 377.56,852.82 842.26,852.82l10141.45 0c464.7,0 844.9,-382.85 844.9,-852.82l0 -10122.97c0,-469.98 -380.21,-852.82 -844.9,-852.82zm-7408.73 10138.81l-1753.17 0 0 -5645 1755.81 0 0 5645 -2.64 0zm-876.58 -6415.97c-562.39,0 -1016.52,-456.78 -1016.52,-1016.52 0,-559.75 454.14,-1016.52 1016.52,-1016.52 559.75,0 1016.52,456.78 1016.52,1016.52 0,562.39 -454.13,1016.52 -1016.52,1016.52l0 -0.01zm7448.33 6415.97l-1753.17 0 0 -2745.93c0,-654.8 -13.2,-1497.06 -910.91,-1497.06 -913.55,0 -1053.48,712.89 -1053.48,1449.53l0 2793.45 -1753.17 0 0 -5645 1681.88 0 0 770.97 23.76 0c234.99,-443.57 807.94,-910.91 1660.76,-910.91 1774.29,0 2104.33,1169.66 2104.33,2690.48l-0.01 3094.46z"/>
 </g>
</svg>
