<?xml version="1.0" encoding="UTF-8"?>
<!DOCTYPE svg PUBLIC "-//W3C//DTD SVG 1.1//EN" "http://www.w3.org/Graphics/SVG/1.1/DTD/svg11.dtd">
<!-- Creator: CorelDRAW 2019 (64 Bit) -->
<svg xmlns="http://www.w3.org/2000/svg" xml:space="preserve" width="210mm" height="210mm" version="1.1" style="shape-rendering:geometricPrecision; text-rendering:geometricPrecision; image-rendering:optimizeQuality; fill-rule:evenodd; clip-rule:evenodd"
viewBox="0 0 28938.41 28938.41"
 xmlns:xlink="http://www.w3.org/1999/xlink">
 <defs>
  <style type="text/css">
   <![CDATA[
    .fil0 {fill:white}
   ]]>
  </style>
 </defs>
 <g id="Camada_x0020_1">
  <metadata id="CorelCorpID_0Corel-Layer"/>
  <path class="fil0" d="M-0 12389.25l0 12010.57c0,805.41 656.76,1483.66 1497.78,1526.05 2759.33,141.32 8687.19,712.16 12067.1,3006.89l0 -15073.98c-3312.1,-2243.86 -9043.82,-2848.63 -11878.31,-3006.88 -918.46,-50.86 -1686.57,655.63 -1686.57,1537.35zm27254.1 -1537.35c-2831.1,160.97 -8551.52,761.33 -11818.41,3000.67 -56.51,6.21 -62.16,11.86 -62.16,23.18l0 15062.66c3393.48,-2282.85 9308.89,-2868.97 12067.1,-3011.4 842.15,-46.36 1497.78,-724.59 1497.78,-1527.18l0 -12010.59c0,-881.71 -768.67,-1588.21 -1684.31,-1537.35zm-7358.94 -5425.95c0,-2995.58 -2430.37,-5425.95 -5425.95,-5425.95 -2995.58,0 -5425.95,2430.37 -5425.95,5425.95 0,2995.58 2430.37,5425.95 5425.95,5425.95 2995.58,0 5425.95,-2430.37 5425.95,-5425.95z"/>
 </g>
</svg>
