<?xml version="1.0" encoding="UTF-8"?>
<!DOCTYPE svg PUBLIC "-//W3C//DTD SVG 1.1//EN" "http://www.w3.org/Graphics/SVG/1.1/DTD/svg11.dtd">
<!-- Creator: CorelDRAW 2019 (64 Bit) -->
<svg xmlns="http://www.w3.org/2000/svg" xml:space="preserve" width="210mm" height="210mm" version="1.1" style="shape-rendering:geometricPrecision; text-rendering:geometricPrecision; image-rendering:optimizeQuality; fill-rule:evenodd; clip-rule:evenodd"
viewBox="0 0 26583.46 26583.46"
 xmlns:xlink="http://www.w3.org/1999/xlink">
 <defs>
  <style type="text/css">
   <![CDATA[
    .fil0 {fill:white}
   ]]>
  </style>
 </defs>
 <g id="Camada_x0020_1">
  <metadata id="CorelCorpID_0Corel-Layer"/>
  <path class="fil0" d="M26536.74 19060.14c0,2293.86 -2231.56,4153.67 -4937.68,4153.67 -2706.12,0 -4937.68,-1859.8 -4937.68,-4106.94 0,-2293.86 2231.56,-4106.94 4937.68,-4106.94 585.67,0 1139.66,99.69 1661.99,254.3l0 -7564.76 -13292.25 3940.8 -0.11 10804.72c-46.61,2289.71 -2232.48,4148.48 -5031.01,4148.48 -2798.53,0 -4937.68,-1858.77 -4937.68,-4153.67 0,-2293.86 2231.56,-4106.94 4937.68,-4106.94 585.67,0 1139.66,99.69 1661.47,254.3l0 -12009.17c0,-673.41 522.33,-1382.66 1163.55,-1584.63l16567.94 -4906c181.2,-43.01 451.18,-77.36 591.37,-77.36 916.93,0 1659.91,744.54 1661.47,1660.95l-46.72 17399.19z"/>
 </g>
</svg>
