<?xml version="1.0" encoding="UTF-8"?>
<!DOCTYPE svg PUBLIC "-//W3C//DTD SVG 1.1//EN" "http://www.w3.org/Graphics/SVG/1.1/DTD/svg11.dtd">
<!-- Creator: CorelDRAW 2019 (64 Bit) -->
<svg xmlns="http://www.w3.org/2000/svg" xml:space="preserve" width="76.2mm" height="76.2mm" version="1.1" style="shape-rendering:geometricPrecision; text-rendering:geometricPrecision; image-rendering:optimizeQuality; fill-rule:evenodd; clip-rule:evenodd"
viewBox="0 0 2859.01 2859.01"
 xmlns:xlink="http://www.w3.org/1999/xlink">
 <defs>
  <style type="text/css">
   <![CDATA[
    .fil0 {fill:white}
   ]]>
  </style>
 </defs>
 <g id="Camada_x0020_1">
  <metadata id="CorelCorpID_0Corel-Layer"/>
  <path class="fil0" d="M317.67 0c-174.72,0 -317.67,142.95 -317.67,317.67l0 2223.67c0,174.72 142.95,317.67 317.67,317.67l2223.67 0c174.72,0 317.67,-142.95 317.67,-317.67l0 -2223.67c0,-174.72 -142.95,-317.67 -317.67,-317.67l-2223.67 0zm433.38 794.17l295.33 0c369.45,0 413.84,339.98 413.84,413.84 0,295.43 -206.76,398.64 -398.95,398.64l-177.45 0 0 310.22c0,73.38 -59.39,133.09 -132.78,133.09 -73.38,0 -133.09,-59.71 -133.09,-133.09l0 -989.61c0,-73.38 59.71,-133.08 133.09,-133.08zm132.78 206.92l0 398.94 177.45 0c118.17,0 147.67,-88.63 147.67,-192.03 0.16,-103.56 -44.11,-206.92 -147.67,-206.92l-177.45 0zm1049.17 103.3c131.2,0 226.09,46.4 281.68,118.19 55.91,72.11 3.69,177.13 -87.48,177.13l-15.2 0c-42.89,0 -85.42,-23.41 -100.51,-63.59 -13.18,-34.95 -39.1,-54.6 -78.49,-54.6 -44.31,0 -88.72,29.64 -88.72,88.72 0,147.72 428.42,103.28 428.42,428.42 0,221.89 -221.52,266.17 -339.69,266.17 -140.57,0 -239.24,-57.59 -296.26,-135.26 -53.37,-72.59 -1.34,-174.97 88.72,-174.97 42.57,0 84.01,22.8 99.89,62.35 24.46,61.31 84.46,70.42 107.64,70.42 59.09,0 103.31,-29.64 103.31,-88.72 0,-132.94 -428.73,-117.94 -428.73,-413.53 0,-221.57 207.09,-280.75 325.42,-280.75z"/>
 </g>
</svg>
