<?xml version="1.0" encoding="UTF-8"?>
<!DOCTYPE svg PUBLIC "-//W3C//DTD SVG 1.1//EN" "http://www.w3.org/Graphics/SVG/1.1/DTD/svg11.dtd">
<!-- Creator: CorelDRAW 2019 (64 Bit) -->
<svg xmlns="http://www.w3.org/2000/svg" xml:space="preserve" width="210mm" height="168mm" version="1.1" style="shape-rendering:geometricPrecision; text-rendering:geometricPrecision; image-rendering:optimizeQuality; fill-rule:evenodd; clip-rule:evenodd"
viewBox="0 0 20192.99 16154.39"
 xmlns:xlink="http://www.w3.org/1999/xlink">
 <defs>
  <style type="text/css">
   <![CDATA[
    .fil0 {fill:white}
   ]]>
  </style>
 </defs>
 <g id="Camada_x0020_1">
  <metadata id="CorelCorpID_0Corel-Layer"/>
  <path class="fil0" d="M16154.39 14135.09l-12144.19 0c-530.07,0 -981.25,451.19 -981.25,981.25 0,530.07 451.19,1038.04 981.25,1038.04l12115.8 0c586.86,0 1038.04,-451.19 1038.04,-1009.65 0,-558.46 -451.19,-1009.65 -1009.65,-1009.65zm2524.12 -14135.09l-17164.04 0c-836.11,0 -1514.47,678.36 -1514.47,1514.47l0 10096.5c0,836.11 678.36,1514.47 1514.47,1514.47l17164.04 0c836.11,0 1514.47,-678.36 1514.47,-1514.47l0 -10096.5c0,-836.11 -678.36,-1514.47 -1514.47,-1514.47zm-504.82 11106.15l-16154.39 0 0 -9086.85 16154.39 0 0 9086.85z"/>
 </g>
</svg>
