<?xml version="1.0" encoding="UTF-8"?>
<!DOCTYPE svg PUBLIC "-//W3C//DTD SVG 1.1//EN" "http://www.w3.org/Graphics/SVG/1.1/DTD/svg11.dtd">
<!-- Creator: CorelDRAW 2019 (64 Bit) -->
<svg xmlns="http://www.w3.org/2000/svg" xml:space="preserve" width="209.999mm" height="170.558mm" version="1.1" style="shape-rendering:geometricPrecision; text-rendering:geometricPrecision; image-rendering:optimizeQuality; fill-rule:evenodd; clip-rule:evenodd"
viewBox="0 0 7435.83 6039.26"
 xmlns:xlink="http://www.w3.org/1999/xlink">
 <defs>
  <style type="text/css">
   <![CDATA[
    .fil0 {fill:white}
   ]]>
  </style>
 </defs>
 <g id="Camada_x0020_1">
  <metadata id="CorelCorpID_0Corel-Layer"/>
  <path class="fil0" d="M6671.5 1505.09c4.72,66.05 4.72,132.12 4.72,198.17 0,2014.65 -1533.4,4336 -4336,4336 -863.43,0 -1665.52,-250.08 -2340.22,-684.13 122.68,14.15 240.62,18.87 368.02,18.87 712.43,0 1368.27,-240.62 1891.99,-651.1 -669.98,-14.16 -1231.45,-452.95 -1424.9,-1056.88 94.37,14.15 188.73,23.59 287.82,23.59 136.82,0 273.66,-18.88 401.04,-51.89 -698.29,-141.56 -1222.02,-754.91 -1222.02,-1495.66l0 -18.87c202.88,113.24 438.8,184.01 688.85,193.44 -410.48,-273.66 -679.41,-740.75 -679.41,-1269.2 0,-283.09 75.48,-542.58 207.6,-769.06 750.19,924.76 1877.85,1528.68 3142.3,1594.74 -23.59,-113.24 -37.75,-231.18 -37.75,-349.14 0,-839.85 679.42,-1523.97 1523.97,-1523.97 438.79,0 835.11,184.01 1113.49,481.25 344.42,-66.05 674.69,-193.45 967.23,-368.02 -113.25,353.87 -353.87,651.12 -669.98,839.83 306.69,-33.01 603.93,-117.96 877.58,-235.9 -207.57,301.95 -467.08,570.88 -764.33,787.93l-0.01 0z"/>
 </g>
</svg>
