<?xml version="1.0" encoding="UTF-8"?>
<!DOCTYPE svg PUBLIC "-//W3C//DTD SVG 1.1//EN" "http://www.w3.org/Graphics/SVG/1.1/DTD/svg11.dtd">
<!-- Creator: CorelDRAW 2019 (64 Bit) -->
<svg xmlns="http://www.w3.org/2000/svg" xml:space="preserve" width="110.056mm" height="157.222mm" version="1.1" style="shape-rendering:geometricPrecision; text-rendering:geometricPrecision; image-rendering:optimizeQuality; fill-rule:evenodd; clip-rule:evenodd"
viewBox="0 0 22893.88 32705.42"
 xmlns:xlink="http://www.w3.org/1999/xlink">
 <defs>
  <style type="text/css">
   <![CDATA[
    .fil0 {fill:white}
   ]]>
  </style>
 </defs>
 <g id="Camada_x0020_1">
  <metadata id="CorelCorpID_0Corel-Layer"/>
  <g id="_2998033799600">
   <path class="fil0" d="M7358.83 26164.28l-2453.05 0 0 -14717.36 2453.05 0 0 14717.36zm5314.62 0l-2453.05 0 0 -14717.36 2453.05 0 0 14717.36zm5314.65 0l-2453.07 0 0 -14717.36 2453.07 0 0 14717.36zm1635.05 -19623.14l-3270.42 0 0 -4905.78c0,-899.27 -735.79,-1635.36 -1635.36,-1635.36l-6540.85 0c-899.57,0 -1635.36,736.08 -1635.36,1635.36l0 4905.78 -3270.42 0c-1798.84,0 -3270.74,1471.89 -3270.74,3270.42l0 17987.76c0,1798.84 1471.89,3270.42 3270.42,3270.42 0,899.27 735.79,1635.38 1635.36,1635.38 899.59,0 1635.38,-735.79 1635.38,-1635.38l9811.56 0.31c0,899.27 735.79,1635.38 1635.38,1635.38 899.57,0 1635.36,-735.79 1635.36,-1635.38 1798.84,0 3270.42,-1471.89 3270.42,-3270.42l0 -17988.08c0,-1798.53 -1471.89,-3270.42 -3270.74,-3270.42zm-10629.25 -4088.09l4905.78 0 0 4088.09 -4905.78 0 0 -4088.09zm10629.25 25346.59l-16352.41 0 0 -17988.08 16352.41 0 0 17988.08z"/>
  </g>
 </g>
</svg>
