<?xml version="1.0" encoding="UTF-8"?>
<!DOCTYPE svg PUBLIC "-//W3C//DTD SVG 1.1//EN" "http://www.w3.org/Graphics/SVG/1.1/DTD/svg11.dtd">
<!-- Creator: CorelDRAW 2019 (64 Bit) -->
<svg xmlns="http://www.w3.org/2000/svg" xml:space="preserve" width="88.1944mm" height="41.0533mm" version="1.1" style="shape-rendering:geometricPrecision; text-rendering:geometricPrecision; image-rendering:optimizeQuality; fill-rule:evenodd; clip-rule:evenodd"
viewBox="0 0 3036.69 1413.54"
 xmlns:xlink="http://www.w3.org/1999/xlink">
 <defs>
  <style type="text/css">
   <![CDATA[
    .fil0 {fill:black}
   ]]>
  </style>
 </defs>
 <g id="Camada_x0020_1">
  <metadata id="CorelCorpID_0Corel-Layer"/>
  <g id="_2344491943552">
   <path class="fil0" d="M2708.73 1263.27c-214.74,0 -210.14,-233.86 -26.74,-281.83 34.52,-9.03 58.75,-21.39 88.93,-32.53 41.13,-15.18 59.8,-18.89 95.72,-37.9 0,107.07 25.5,280.13 -49.98,326.57 -18.48,11.37 -80.85,25.69 -107.93,25.69zm-303.67 -607.34l133.61 0c21.34,-44.47 12.79,-133.62 170.06,-133.62 40.1,0 77.63,11.97 106.04,27.58 28.18,15.48 21.32,7.88 36.68,36.2 116.23,214.38 -280.4,219.96 -394.98,315.6 -114.81,95.82 -153.49,507.34 191.53,507.34 161.84,0 388.7,3.56 388.7,-255.08l0 -546.61c0,-203.55 -236.2,-260.18 -369.13,-235.72 -75.96,13.98 -250.58,13.82 -286.42,175.38 -8.35,37.64 -35.03,108.93 23.92,108.93z"/>
   <path class="fil0" d="M170.06 1141.8c0,-175.57 129.27,-132.08 315.82,-230.79 0,172.82 55.59,352.26 -157.91,352.26 -79.74,0 -157.91,-27.96 -157.91,-121.47zm-170.06 -558.75l0 72.88 170.06 0c4.35,-195.42 315.82,-160.4 315.82,-24.3 0,157.86 -115.02,147.45 -277.93,207.94 -187.21,69.52 -207.94,118.67 -207.94,326.52 0,245.86 237.88,242.93 388.7,242.93 117.51,0 267.23,-78.34 267.23,-218.64l0 -595.19c0,-180.5 -180.12,-219.55 -317.03,-230.53 -39.35,-3.15 -173.02,14.35 -227.46,50.44 -57.06,37.83 -111.43,75.88 -111.43,167.94z"/>
   <path class="fil0" d="M1081.06 376.55c0,214.59 0,429.19 0,643.78 0,216.3 -2.73,270.11 130.75,355.12 58.55,37.29 537.32,122.8 537.32,-209.36l0 -765.25c0,-49.59 -38.08,-36.44 -133.62,-36.44 -50.39,0 -37.09,45.62 -36.55,97.06l-0.34 679.88c-9.59,88.2 -61.04,112.35 -159.77,114.72 -78.87,1.9 -150.05,-8.68 -156.06,-101.66l0.75 -693.11c0.83,-109.29 -12.7,-96.89 -121.75,-96.89 -19.14,0 -46.03,6.44 -60.73,12.15z"/>
   <polygon class="fil0" points="789.54,1409.03 959.59,1409.03 959.59,0 789.54,0 "/>
   <path class="fil0" d="M1882.75 595.19l0 813.83 170.06 0 0 -765.25c0,-165.61 213.93,-82.7 241.69,-147.01 2.55,-5.91 50.99,-132.37 1.25,-132.37 -159.29,0 -412.99,23.45 -412.99,230.79z"/>
  </g>
 </g>
</svg>
